STARTFONT 2.1
FONT -Bitstream-Terminal-Bold-R-Double Wide--25-180-100-100-C-300-DEC-DECtech
SIZE 18 100 100
FONTBOUNDINGBOX 30 25 0 -5

STARTPROPERTIES 27
FOUNDRY "Bitstream"
FAMILY_NAME "Terminal"
WEIGHT_NAME "Bold"
SLANT "R"
SETWIDTH_NAME "Double Wide"
ADD_STYLE_NAME ""
PIXEL_SIZE 25
POINT_SIZE 180
RESOLUTION_X 100
RESOLUTION_Y 100
SPACING "C"
AVERAGE_WIDTH 300
CHARSET_REGISTRY "DEC"
CHARSET_ENCODING "DECtech"
CAP_HEIGHT 15
COPYRIGHT "Copyright (c) 1991 Digital Equipment Corporation. All Rights Reserved."
_DEC_PRODUCTINFO "DECterm Fonts V2.2, 11-Nov-1991"
AVG_CAPITAL_WIDTH 300
AVG_LOWERCASE_WIDTH 300
FIGURE_WIDTH 30
FULL_NAME "Terminal Bold Double Wide"
WEIGHT 10
X_HEIGHT -2
QUAD_WIDTH 30
DEFAULT_CHAR 159
FONT_DESCENT 5
FONT_ASCENT 20
ENDPROPERTIES

CHARS 182

STARTCHAR space
ENCODING 32
SWIDTH 1131 0
DWIDTH 30 0
BBX 30 25 0 -5
BITMAP
00000000
00000000
00000000
00000000
00000000
00000000
00000000
00000000
00000000
00000000
00000000
00000000
00000000
00000000
00000000
00000000
00000000
00000000
00000000
00000000
00000000
00000000
00000000
00000000
00000000
ENDCHAR

STARTCHAR exclam
ENCODING 33
SWIDTH 1131 0
DWIDTH 30 0
BBX 30 25 0 -5
BITMAP
00000000
00000000
00000000
00000000
00000000
001FE000
001FE000
001FE000
001FE000
001FE000
001FE000
001FE000
001FE000
001FE000
00000000
00000000
001FE000
00FFFC00
00FFFC00
001FE000
00000000
00000000
00000000
00000000
00000000
ENDCHAR

STARTCHAR quotedbl
ENCODING 34
SWIDTH 1131 0
DWIDTH 30 0
BBX 30 25 0 -5
BITMAP
00000000
00000000
01F03E00
01F03E00
01F03E00
01F03E00
01F03E00
01F03E00
01F03E00
01F03E00
00000000
00000000
00000000
00000000
00000000
00000000
00000000
00000000
00000000
00000000
00000000
00000000
00000000
00000000
00000000
ENDCHAR

STARTCHAR numbersign
ENCODING 35
SWIDTH 1131 0
DWIDTH 30 0
BBX 30 25 0 -5
BITMAP
00000000
00000000
00000000
00000000
00000000
07F87F80
07F87F80
07F87F80
07F87F80
07F87F80
7FFFFFF8
7FFFFFF8
7FFFFFF8
07F87F80
07F87F80
07F87F80
7FFFFFF8
7FFFFFF8
7FFFFFF8
07F87F80
07F87F80
07F87F80
07F87F80
07F87F80
00000000
ENDCHAR

STARTCHAR dollar
ENCODING 36
SWIDTH 1131 0
DWIDTH 30 0
BBX 30 25 0 -5
BITMAP
00000000
00000000
0003E000
0003E000
0003E000
03FFE1F0
0FFFFFF0
0FFFFFF0
3FE01FF0
3FE003F0
0FFF0000
0FFFE000
01FFFF00
000FFFC0
3F001FF0
3F001FF0
3FE01FF0
3FFFFFF0
3FFFFFC0
3F1FFF00
001F8000
001F8000
001F8000
001F8000
00000000
ENDCHAR

STARTCHAR percent
ENCODING 37
SWIDTH 1131 0
DWIDTH 30 0
BBX 30 25 0 -5
BITMAP
00000000
00000000
00000000
00000000
3FFF0000
7FFF8000
7C0F8000
7C0F8000
7C0F80C0
7FFF8FC0
3FFF1E00
0000F000
000FC000
003C0000
03E0FFF0
0F07FFF8
0C07C0F8
0007C0F8
0007C0F8
0007FFF8
0003FFF0
00000000
00000000
00000000
00000000
ENDCHAR

STARTCHAR ampersand
ENCODING 38
SWIDTH 1131 0
DWIDTH 30 0
BBX 30 25 0 -5
BITMAP
00000000
00000000
00000000
00000000
00000000
003FCF80
01FFFF80
03FFFF80
03F81F80
03FC0000
01FF03F0
00FF83F0
03FFC3F0
0FCFEF80
3FC3FF80
3FC0FF00
3FE07F80
0FFFFFF0
0FFFFFF0
03FFE3F0
00000000
00000000
00000000
00000000
00000000
ENDCHAR

STARTCHAR quoteright
ENCODING 39
SWIDTH 1131 0
DWIDTH 30 0
BBX 30 25 0 -5
BITMAP
00000000
00000000
0007FC00
000FF000
001FE000
003F8000
00FF0000
01F80000
03F00000
00000000
00000000
00000000
00000000
00000000
00000000
00000000
00000000
00000000
00000000
00000000
00000000
00000000
00000000
00000000
00000000
ENDCHAR

STARTCHAR parenleft
ENCODING 40
SWIDTH 1131 0
DWIDTH 30 0
BBX 30 25 0 -5
BITMAP
00000000
00000000
00000000
00003E00
0000FE00
0007F000
000FC000
001FC000
003F8000
00FF8000
00FF0000
01FF0000
01FF0000
01FF0000
01FF0000
01FF0000
01FF0000
00FF8000
00FF8000
003FC000
001FC000
000FF000
0003FE00
00003E00
00000000
ENDCHAR

STARTCHAR parenright
ENCODING 41
SWIDTH 1131 0
DWIDTH 30 0
BBX 30 25 0 -5
BITMAP
00000000
00000000
00000000
01F00000
01FF0000
003FC000
000FE000
000FF000
0007FC00
0007FC00
0003FE00
0003FE00
0003FE00
0003FE00
0003FE00
0003FE00
0003FC00
0007FC00
0007F000
000FE000
000FC000
003F8000
01FC0000
01F00000
00000000
ENDCHAR

STARTCHAR asterisk
ENCODING 42
SWIDTH 1131 0
DWIDTH 30 0
BBX 30 25 0 -5
BITMAP
00000000
00000000
00000000
00000000
00000000
00000000
000FC000
060FC180
0F0FC3C0
3FCFCFF0
0FFFFFC0
07FFFF80
03FFFF00
01FFFE00
01FFFE00
03FCFF00
07F87F80
03F03F00
01E01E00
00C00C00
00000000
00000000
00000000
00000000
00000000
ENDCHAR

STARTCHAR plus
ENCODING 43
SWIDTH 1131 0
DWIDTH 30 0
BBX 30 25 0 -5
BITMAP
00000000
00000000
00000000
00000000
00000000
00000000
00000000
001FE000
001FE000
001FE000
001FE000
001FE000
3FFFFFF0
3FFFFFF0
3FFFFFF0
001FE000
001FE000
001FE000
001FE000
001FE000
00000000
00000000
00000000
00000000
00000000
ENDCHAR

STARTCHAR comma
ENCODING 44
SWIDTH 1131 0
DWIDTH 30 0
BBX 30 25 0 -5
BITMAP
00000000
00000000
00000000
00000000
00000000
00000000
00000000
00000000
00000000
00000000
00000000
00000000
00000000
00000000
00000000
00000000
001FFC00
001FFC00
001FF000
003FE000
003FC000
00FF8000
00FF0000
01FC0000
00000000
ENDCHAR

STARTCHAR minus
ENCODING 45
SWIDTH 1131 0
DWIDTH 30 0
BBX 30 25 0 -5
BITMAP
00000000
00000000
00000000
00000000
00000000
00000000
00000000
00000000
00000000
00000000
00000000
00000000
3FFFFFF0
3FFFFFF0
3FFFFFF0
00000000
00000000
00000000
00000000
00000000
00000000
00000000
00000000
00000000
00000000
ENDCHAR

STARTCHAR period
ENCODING 46
SWIDTH 1131 0
DWIDTH 30 0
BBX 30 25 0 -5
BITMAP
00000000
00000000
00000000
00000000
00000000
00000000
00000000
00000000
00000000
00000000
00000000
00000000
00000000
00000000
00000000
000FC000
003FF000
003FF000
003FF000
000FC000
00000000
00000000
00000000
00000000
00000000
ENDCHAR

STARTCHAR slash
ENCODING 47
SWIDTH 1131 0
DWIDTH 30 0
BBX 30 25 0 -5
BITMAP
00000000
00000000
00000000
000000FC
000001F8
000003F0
00000FC0
00001F80
00003F00
00007E00
0000FC00
0003F000
0007E000
000FC000
001F8000
003F0000
00FC0000
01F80000
03F00000
07E00000
0FC00000
3F000000
7E000000
00000000
00000000
ENDCHAR

STARTCHAR zero
ENCODING 48
SWIDTH 1131 0
DWIDTH 30 0
BBX 30 25 0 -5
BITMAP
00000000
00000000
00000000
00000000
00000000
00FFFC00
03FFFF00
0FFFFFC0
0FF03FC0
3FE01FF0
3FE01FF0
3FE01FF0
3FE01FF0
3FE01FF0
3FE01FF0
3FE01FF0
0FF03FC0
07FFFF80
03FFFF00
003FF000
00000000
00000000
00000000
00000000
00000000
ENDCHAR

STARTCHAR one
ENCODING 49
SWIDTH 1131 0
DWIDTH 30 0
BBX 30 25 0 -5
BITMAP
00000000
00000000
00000000
00000000
00000000
001FF000
01FFF000
0FFFF000
0FFFF000
0E0FF000
000FF000
000FF000
000FF000
000FF000
000FF000
000FF000
000FF000
07FFFFF0
07FFFFF0
07FFFFF0
00000000
00000000
00000000
00000000
00000000
ENDCHAR

STARTCHAR two
ENCODING 50
SWIDTH 1131 0
DWIDTH 30 0
BBX 30 25 0 -5
BITMAP
00000000
00000000
00000000
00000000
00000000
01FFFF00
3FFFFFC0
3FFFFFC0
3F001FF0
3F001FF0
00003FC0
00007FC0
0003FF00
000FFC00
003FE000
01FF83F0
07F803F0
3FFFFFF0
3FFFFFF0
3FFFFFF0
00000000
00000000
00000000
00000000
00000000
ENDCHAR

STARTCHAR three
ENCODING 51
SWIDTH 1131 0
DWIDTH 30 0
BBX 30 25 0 -5
BITMAP
00000000
00000000
00000000
00000000
00000000
03FFFF00
3FFFFFC0
3FFFFFF0
3F001FF0
3F001FC0
00001FC0
001FFF00
001FFFC0
001FFFF0
00001FF0
3F001FF0
3F001FF0
3FFFFFF0
3FFFFFC0
03FFFF00
00000000
00000000
00000000
00000000
00000000
ENDCHAR

STARTCHAR four
ENCODING 52
SWIDTH 1131 0
DWIDTH 30 0
BBX 30 25 0 -5
BITMAP
00000000
00000000
00000000
00000000
00000000
001FFF00
003FFF00
00FFFF00
01F8FF00
03F0FF00
07E0FF00
0FC0FF00
3F00FF00
7FFFFFF0
7FFFFFF0
7FFFFFF0
0000FF00
003FFFF0
003FFFF0
003FFFF0
00000000
00000000
00000000
00000000
00000000
ENDCHAR

STARTCHAR five
ENCODING 53
SWIDTH 1131 0
DWIDTH 30 0
BBX 30 25 0 -5
BITMAP
00000000
00000000
00000000
00000000
00000000
3FFFFFF0
3FFFFFF0
3FFFFFF0
3FC00000
3FC00000
3FFFFF00
3FFFFFC0
3FFFFFF0
3C001FF0
00001FF0
00001FF0
3F001FF0
3FFFFFF0
3FFFFFC0
03FFFF00
00000000
00000000
00000000
00000000
00000000
ENDCHAR

STARTCHAR six
ENCODING 54
SWIDTH 1131 0
DWIDTH 30 0
BBX 30 25 0 -5
BITMAP
00000000
00000000
00000000
00000000
00000000
003FFF80
03FFFF80
07FFFF80
0FF00000
0FE00000
3FE3FF00
3FEFFFC0
3FFFFFF0
3FF01FF0
3FE00FF0
3FE00FF0
0FF01FF0
0FFFFFF0
07FFFFC0
00FFFF00
00000000
00000000
00000000
00000000
00000000
ENDCHAR

STARTCHAR seven
ENCODING 55
SWIDTH 1131 0
DWIDTH 30 0
BBX 30 25 0 -5
BITMAP
00000000
00000000
00000000
00000000
00000000
3FFFFFF0
3FFFFFF0
3FFFFFF0
3FC01FF0
3FC03FF0
00007FC0
0000FF80
0003FF00
0007FE00
000FFC00
001FF000
003FE000
00FFC000
01FF8000
01FF8000
00000000
00000000
00000000
00000000
00000000
ENDCHAR

STARTCHAR eight
ENCODING 56
SWIDTH 1131 0
DWIDTH 30 0
BBX 30 25 0 -5
BITMAP
00000000
00000000
00000000
00000000
00000000
03FFFF00
07FFFF80
0FFFFFC0
0FE01FC0
0FE01FC0
07E01F80
03FFFF00
0FFFFFC0
3FE01FF0
3FE01FF0
3FE01FF0
3FE01FF0
0FFFFFC0
0FFFFFC0
03FFFF00
00000000
00000000
00000000
00000000
00000000
ENDCHAR

STARTCHAR nine
ENCODING 57
SWIDTH 1131 0
DWIDTH 30 0
BBX 30 25 0 -5
BITMAP
00000000
00000000
00000000
00000000
00000000
03FFFF00
0FFFFFC0
3FFFFFC0
3FE03FF0
3FC01FF0
3FC01FF0
3FE03FF0
0FFFFFF0
07FFFFF0
01FF9FF0
00001FC0
00003FC0
07FFFF80
07FFFF00
07FFF000
00000000
00000000
00000000
00000000
00000000
ENDCHAR

STARTCHAR colon
ENCODING 58
SWIDTH 1131 0
DWIDTH 30 0
BBX 30 25 0 -5
BITMAP
00000000
00000000
00000000
00000000
00000000
00000000
00000000
00000000
000FC000
003FF000
003FF000
003FF000
000FC000
00000000
00000000
000FC000
003FF000
003FF000
003FF000
000FC000
00000000
00000000
00000000
00000000
00000000
ENDCHAR

STARTCHAR semicolon
ENCODING 59
SWIDTH 1131 0
DWIDTH 30 0
BBX 30 25 0 -5
BITMAP
00000000
00000000
00000000
00000000
00000000
00000000
00000000
00000000
0007F000
001FFE00
001FFE00
001FFE00
0007F000
00000000
00000000
00000000
001FFC00
001FFC00
001FF000
003FE000
003FC000
00FF8000
00FF0000
01FC0000
00000000
ENDCHAR

STARTCHAR less
ENCODING 60
SWIDTH 1131 0
DWIDTH 30 0
BBX 30 25 0 -5
BITMAP
00000000
00000000
00000000
00000000
00000000
00000000
000003F0
00001FF0
0000FFF0
001FFF00
03FFF000
3FFF0000
3FF80000
3FFF0000
03FFF000
001FFF00
0000FFF0
00001FF0
000003F0
00000000
00000000
00000000
00000000
00000000
00000000
ENDCHAR

STARTCHAR equal
ENCODING 61
SWIDTH 1131 0
DWIDTH 30 0
BBX 30 25 0 -5
BITMAP
00000000
00000000
00000000
00000000
00000000
00000000
00000000
00000000
00000000
3FFFFFF0
3FFFFFF0
3FFFFFF0
00000000
00000000
3FFFFFF0
3FFFFFF0
3FFFFFF0
00000000
00000000
00000000
00000000
00000000
00000000
00000000
00000000
ENDCHAR

STARTCHAR greater
ENCODING 62
SWIDTH 1131 0
DWIDTH 30 0
BBX 30 25 0 -5
BITMAP
00000000
00000000
00000000
00000000
00000000
00000000
3F000000
3FE00000
3FFC0000
03FFE000
003FFF00
0003FFF0
00007FF0
0003FFF0
003FFF00
03FFE000
3FFC0000
3FE00000
3F000000
00000000
00000000
00000000
00000000
00000000
00000000
ENDCHAR

STARTCHAR question
ENCODING 63
SWIDTH 1131 0
DWIDTH 30 0
BBX 30 25 0 -5
BITMAP
00000000
00000000
00000000
00000000
00000000
01FFFE00
07FFFF80
0FF87FC0
0FF03FC0
00003FC0
000FFF00
003FFC00
003FC000
003FC000
00000000
00000000
003FC000
01FFF000
01FFF000
003FC000
00000000
00000000
00000000
00000000
00000000
ENDCHAR

STARTCHAR at
ENCODING 64
SWIDTH 1131 0
DWIDTH 30 0
BBX 30 25 0 -5
BITMAP
00000000
00000000
00000000
01FFFE00
03FFFF00
0FFFFF80
3FC01FC0
3F000FC0
7F000FC0
7E0FFFC0
7E1FFFC0
7E3FFFC0
7E3F0FC0
7E3F0FC0
7E3FFFC0
7E1FF3F8
7E0FF1F8
7F000000
7F000000
3FE00000
0FFFFF80
03FFFF80
01FFFF80
00000000
00000000
ENDCHAR

STARTCHAR A
ENCODING 65
SWIDTH 1131 0
DWIDTH 30 0
BBX 30 25 0 -5
BITMAP
00000000
00000000
00000000
00000000
00000000
001FF000
003FFC00
003FFC00
00FFFE00
00FCFE00
01F8FE00
01F87F00
03F07F00
03FFFF80
07FFFF80
07C03FC0
0FC01FC0
7FF07FF8
7FF07FF8
7FF07FF8
00000000
00000000
00000000
00000000
00000000
ENDCHAR

STARTCHAR B
ENCODING 66
SWIDTH 1131 0
DWIDTH 30 0
BBX 30 25 0 -5
BITMAP
00000000
00000000
00000000
00000000
00000000
7FFFFF00
7FFFFFC0
7FFFFFC0
0FF03FC0
0FF03FC0
0FF03F00
0FFFFF00
0FFFFFC0
0FF00FF8
0FF00FF8
0FF00FF8
0FF00FF8
7FFFFFF0
7FFFFFF0
7FFFFF80
00000000
00000000
00000000
00000000
00000000
ENDCHAR

STARTCHAR C
ENCODING 67
SWIDTH 1131 0
DWIDTH 30 0
BBX 30 25 0 -5
BITMAP
00000000
00000000
00000000
00000000
00000000
00FFF0F8
07FFFFF8
0FFFFFF8
3FE00FF8
7FC001F8
7FC001F8
7FC00000
7FC00000
7FC00000
7FC00000
7FE00000
3FF001F8
0FFFFFF8
07FFFFF8
00FFFF00
00000000
00000000
00000000
00000000
00000000
ENDCHAR

STARTCHAR D
ENCODING 68
SWIDTH 1131 0
DWIDTH 30 0
BBX 30 25 0 -5
BITMAP
00000000
00000000
00000000
00000000
00000000
7FFFFF00
7FFFFFC0
7FFFFFC0
0FF01FF0
0FF00FF8
0FF00FF8
0FF00FF8
0FF00FF8
0FF00FF8
0FF00FF8
0FF00FF8
0FF01FF0
7FFFFFC0
7FFFFFC0
7FFFFF00
00000000
00000000
00000000
00000000
00000000
ENDCHAR

STARTCHAR E
ENCODING 69
SWIDTH 1131 0
DWIDTH 30 0
BBX 30 25 0 -5
BITMAP
00000000
00000000
00000000
00000000
00000000
3FFFFFF0
3FFFFFF0
3FFFFFF0
07F801F0
07F801F0
07F8F000
07FFF000
07FFF000
07F8F000
07F801F0
07F801F0
07F801F0
3FFFFFF0
3FFFFFF0
3FFFFFF0
00000000
00000000
00000000
00000000
00000000
ENDCHAR

STARTCHAR F
ENCODING 70
SWIDTH 1131 0
DWIDTH 30 0
BBX 30 25 0 -5
BITMAP
00000000
00000000
00000000
00000000
00000000
3FFFFFF0
3FFFFFF0
3FFFFFF0
07F801F0
07F801F0
07F80000
07F87C00
07FFFC00
07FFFC00
07F87C00
07F80000
07F80000
3FFF8000
3FFF8000
3FFF8000
00000000
00000000
00000000
00000000
00000000
ENDCHAR

STARTCHAR G
ENCODING 71
SWIDTH 1131 0
DWIDTH 30 0
BBX 30 25 0 -5
BITMAP
00000000
00000000
00000000
00000000
00000000
00FFF0F8
07FFFFF8
0FFFFFF8
3FE00FF8
7FC001F8
7FC00000
7FC00000
7FC0FFF8
7FC0FFF8
7FC00FF8
7FC00FF8
3FE00FF8
0FFFFFF8
07FFFFF8
00FFFF80
00000000
00000000
00000000
00000000
00000000
ENDCHAR

STARTCHAR H
ENCODING 72
SWIDTH 1131 0
DWIDTH 30 0
BBX 30 25 0 -5
BITMAP
00000000
00000000
00000000
00000000
00000000
7FF03FF8
7FF03FF8
7FF03FF8
0FF03FC0
0FF03FC0
0FF03FC0
0FFFFFC0
0FFFFFC0
0FF03FC0
0FF03FC0
0FF03FC0
0FF03FC0
7FF03FF8
7FF03FF8
7FF03FF8
00000000
00000000
00000000
00000000
00000000
ENDCHAR

STARTCHAR I
ENCODING 73
SWIDTH 1131 0
DWIDTH 30 0
BBX 30 25 0 -5
BITMAP
00000000
00000000
00000000
00000000
00000000
07FFFF80
07FFFF80
07FFFF80
001FE000
001FE000
001FE000
001FE000
001FE000
001FE000
001FE000
001FE000
001FE000
07FFFF80
07FFFF80
07FFFF80
00000000
00000000
00000000
00000000
00000000
ENDCHAR

STARTCHAR J
ENCODING 74
SWIDTH 1131 0
DWIDTH 30 0
BBX 30 25 0 -5
BITMAP
00000000
00000000
00000000
00000000
00000000
003FFFF8
003FFFF8
003FFFF8
0000FF00
0000FF00
0000FF00
0000FF00
0000FF00
7E00FF00
7E00FF00
7E00FF00
7F00FF00
7FFFFE00
7FFFFE00
0FFFF000
00000000
00000000
00000000
00000000
00000000
ENDCHAR

STARTCHAR K
ENCODING 75
SWIDTH 1131 0
DWIDTH 30 0
BBX 30 25 0 -5
BITMAP
00000000
00000000
00000000
00000000
00000000
7FF03FF0
7FF03FF0
7FF03FF0
0FF07E00
0FF0F000
0FF3E000
0FF7C000
0FFFE000
0FFFF000
0FF3FC00
0FF0FE00
0FF07F00
7FF03FF8
7FF03FF8
7FF03FF8
00000000
00000000
00000000
00000000
00000000
ENDCHAR

STARTCHAR L
ENCODING 76
SWIDTH 1131 0
DWIDTH 30 0
BBX 30 25 0 -5
BITMAP
00000000
00000000
00000000
00000000
00000000
3FFFC000
3FFFC000
3FFFC000
03FC0000
03FC0000
03FC0000
03FC0000
03FC0000
03FC03F0
03FC03F0
03FC03F0
03FC03F0
3FFFFFF0
3FFFFFF0
3FFFFFF0
00000000
00000000
00000000
00000000
00000000
ENDCHAR

STARTCHAR M
ENCODING 77
SWIDTH 1131 0
DWIDTH 30 0
BBX 30 25 0 -5
BITMAP
00000000
00000000
00000000
00000000
00000000
7FC003F8
7FE00FF8
7FE00FF8
0FF01FC0
0FF83FC0
0FFC7FC0
0FFFFFC0
0FDFEFC0
0FCFCFC0
0FE39FC0
0FE39FC0
0FE01FC0
7FE01FF8
7FE01FF8
7FE01FF8
00000000
00000000
00000000
00000000
00000000
ENDCHAR

STARTCHAR N
ENCODING 78
SWIDTH 1131 0
DWIDTH 30 0
BBX 30 25 0 -5
BITMAP
00000000
00000000
00000000
00000000
00000000
7FF03FF8
7FF03FF8
7FF83FF8
0FFC3FC0
0FFF3FC0
0FFFBFC0
0FF7BFC0
0FF3FFC0
0FF0FFC0
0FF07FC0
0FF07FC0
0FF03FC0
7FF03FC0
7FF03FC0
7FF03FC0
00000000
00000000
00000000
00000000
00000000
ENDCHAR

STARTCHAR O
ENCODING 79
SWIDTH 1131 0
DWIDTH 30 0
BBX 30 25 0 -5
BITMAP
00000000
00000000
00000000
00000000
00000000
00FFFC00
07FFFF80
0FF87FC0
3FE01FF0
3FC00FF0
7FC00FF8
7F0003F8
7F0003F8
7F0003F8
7FC00FF8
3FC00FF0
3FE01FF0
0FF87FC0
07FFFF80
00FFFC00
00000000
00000000
00000000
00000000
00000000
ENDCHAR

STARTCHAR P
ENCODING 80
SWIDTH 1131 0
DWIDTH 30 0
BBX 30 25 0 -5
BITMAP
00000000
00000000
00000000
00000000
00000000
3FFFFF80
3FFFFFC0
3FFFFFF0
03FC1FF0
03FC1FF0
03FC1FF0
03FC1FF0
03FFFFC0
03FFFF80
03FC0000
03FC0000
03FC0000
3FFFC000
3FFFC000
3FFFC000
00000000
00000000
00000000
00000000
00000000
ENDCHAR

STARTCHAR Q
ENCODING 81
SWIDTH 1131 0
DWIDTH 30 0
BBX 30 25 0 -5
BITMAP
00000000
00000000
00000000
00000000
00000000
00FFFC00
07FFFF80
0FF87FC0
3FE01FF0
3FC00FF0
7FC00FF8
7F0003F8
7F0003F8
7F0003F8
7FC00FF8
3FC00FF0
3FE01FF0
0FF87FC0
07FFFF80
00FFFC00
000F007C
001FFFFC
00FFFFFC
00F87FC0
00000000
ENDCHAR

STARTCHAR R
ENCODING 82
SWIDTH 1131 0
DWIDTH 30 0
BBX 30 25 0 -5
BITMAP
00000000
00000000
00000000
00000000
00000000
7FFFFF00
7FFFFFC0
7FFFFFC0
0FF03FC0
0FF03FC0
0FF03FC0
0FFFFF80
0FFFFC00
0FF3FE00
0FF0FF00
0FF07F00
0FF07F80
7FF03FF8
7FF03FF8
7FF01FF8
00000000
00000000
00000000
00000000
00000000
ENDCHAR

STARTCHAR S
ENCODING 83
SWIDTH 1131 0
DWIDTH 30 0
BBX 30 25 0 -5
BITMAP
00000000
00000000
00000000
00000000
00000000
01FFCFC0
07FFFFC0
07FFFFC0
0FF01FC0
0FF00FC0
07FF0000
03FFF000
00FFFF00
0003FFC0
0FC03FC0
0FC03FC0
0FE03FC0
0FFFFF80
0FFFFF80
0FCFFE00
00000000
00000000
00000000
00000000
00000000
ENDCHAR

STARTCHAR T
ENCODING 84
SWIDTH 1131 0
DWIDTH 30 0
BBX 30 25 0 -5
BITMAP
00000000
00000000
00000000
00000000
00000000
7FFFFFF8
7FFFFFF8
7FFFFFF8
7E1FE1F8
7E1FE1F8
7E1FE1F8
7E1FE1F8
001FE000
001FE000
001FE000
001FE000
001FE000
01FFFE00
01FFFE00
01FFFE00
00000000
00000000
00000000
00000000
00000000
ENDCHAR

STARTCHAR U
ENCODING 85
SWIDTH 1131 0
DWIDTH 30 0
BBX 30 25 0 -5
BITMAP
00000000
00000000
00000000
00000000
00000000
7FF03FF8
7FF03FF8
7FF03FF8
0FF03FC0
0FF03FC0
0FF03FC0
0FF03FC0
0FF03FC0
0FF03FC0
0FF03FC0
0FF03FC0
0FF03FC0
07FFFF80
07FFFF80
01FFFE00
00000000
00000000
00000000
00000000
00000000
ENDCHAR

STARTCHAR V
ENCODING 86
SWIDTH 1131 0
DWIDTH 30 0
BBX 30 25 0 -5
BITMAP
00000000
00000000
00000000
00000000
00000000
7FE00FF8
7FE00FF8
7FE00FF8
0FF01FC0
0FF01FC0
07F03F80
07F83F00
03F87F00
03FC7E00
01FCFE00
01FFFC00
00FFF000
00FFF000
003FE000
003FE000
00000000
00000000
00000000
00000000
00000000
ENDCHAR

STARTCHAR W
ENCODING 87
SWIDTH 1131 0
DWIDTH 30 0
BBX 30 25 0 -5
BITMAP
00000000
00000000
00000000
00000000
00000000
7FE00FFC
7FE00FFC
7FE00FFC
3FC003F8
3FC7C3F8
3FC7C3F8
3FCFE3F0
0FCFE3F0
0FDC73F0
0FFC7FC0
0FFC7FC0
0FFC7FC0
07F01F80
07F01F80
07F01F80
00000000
00000000
00000000
00000000
00000000
ENDCHAR

STARTCHAR X
ENCODING 88
SWIDTH 1131 0
DWIDTH 30 0
BBX 30 25 0 -5
BITMAP
00000000
00000000
00000000
00000000
00000000
3FE00FC0
3FF01FC0
3FF83FC0
07FC7F00
03FFFE00
00FFFC00
003FF000
001FF000
003FFC00
00FFFE00
01FCFF00
03F87F80
3FF03FC0
3FE01FF0
3FE00FF0
00000000
00000000
00000000
00000000
00000000
ENDCHAR

STARTCHAR Y
ENCODING 89
SWIDTH 1131 0
DWIDTH 30 0
BBX 30 25 0 -5
BITMAP
00000000
00000000
00000000
00000000
00000000
7FF01FF8
7FF01FF8
7FF83FF8
07F83F80
03FC7F00
01FFFE00
00FFFC00
003FF000
001FE000
001FE000
001FE000
001FE000
01FFFE00
01FFFE00
01FFFE00
00000000
00000000
00000000
00000000
00000000
ENDCHAR

STARTCHAR Z
ENCODING 90
SWIDTH 1131 0
DWIDTH 30 0
BBX 30 25 0 -5
BITMAP
00000000
00000000
00000000
00000000
00000000
0FFFFF80
0FFFFF80
0FFFFF00
0FC3FE00
0FC7FC00
000FF000
001FE000
003FC000
00FF8000
01FF0FC0
03FC0FC0
07F80FC0
0FFFFFC0
0FFFFFC0
0FFFFFC0
00000000
00000000
00000000
00000000
00000000
ENDCHAR

STARTCHAR bracketleft
ENCODING 91
SWIDTH 1131 0
DWIDTH 30 0
BBX 30 25 0 -5
BITMAP
00000000
00000000
00000000
00FFFE00
00FFFE00
00FFFE00
00FF8000
00FF8000
00FF8000
00FF8000
00FF8000
00FF8000
00FF8000
00FF8000
00FF8000
00FF8000
00FF8000
00FF8000
00FF8000
00FF8000
00FF8000
00FFFE00
00FFFE00
00FFFE00
00000000
ENDCHAR

STARTCHAR backslash
ENCODING 92
SWIDTH 1131 0
DWIDTH 30 0
BBX 30 25 0 -5
BITMAP
00000000
00000000
00000000
7E000000
3F000000
0FC00000
07E00000
03F00000
01F80000
00FC0000
003F0000
001F8000
000FC000
0007E000
0003F000
0000FC00
00007E00
00003F00
00001F80
00000FC0
000003F0
000001F8
000000FC
00000000
00000000
ENDCHAR

STARTCHAR bracketright
ENCODING 93
SWIDTH 1131 0
DWIDTH 30 0
BBX 30 25 0 -5
BITMAP
00000000
00000000
00000000
00FFFE00
00FFFE00
00FFFE00
0003FE00
0003FE00
0003FE00
0003FE00
0003FE00
0003FE00
0003FE00
0003FE00
0003FE00
0003FE00
0003FE00
0003FE00
0003FE00
0003FE00
0003FE00
00FFFE00
00FFFE00
00FFFE00
00000000
ENDCHAR

STARTCHAR asciicircum
ENCODING 94
SWIDTH 1131 0
DWIDTH 30 0
BBX 30 25 0 -5
BITMAP
00000000
00000000
00000000
00000000
00000000
00000000
00000000
00000000
000FC000
001FE000
00FFFC00
01FCFE00
07F87F80
3FE01FF0
3FC00FF0
00000000
00000000
00000000
00000000
00000000
00000000
00000000
00000000
00000000
00000000
ENDCHAR

STARTCHAR ldblank
ENCODING 95
SWIDTH 1131 0
DWIDTH 30 0
BBX 30 25 0 -5
BITMAP
00000000
00000000
00000000
00000000
00000000
00000000
00000000
00000000
00000000
00000000
00000000
00000000
00000000
00000000
00000000
00000000
00000000
00000000
00000000
00000000
00000000
00000000
00000000
00000000
00000000
ENDCHAR

STARTCHAR diamond
ENCODING 96
SWIDTH 1131 0
DWIDTH 30 0
BBX 30 25 0 -5
BITMAP
00000000
00000000
00000000
00000000
00000000
00070000
001FC000
003FE000
01FFFC00
03FFFE00
07FFFF00
0FFFFF80
3FFFFFC0
0FFFFF80
07FFFF00
03FFFE00
01FFFC00
003FE000
001FC000
00070000
00000000
00000000
00000000
00000000
00000000
ENDCHAR

STARTCHAR checkerboard
ENCODING 97
SWIDTH 1131 0
DWIDTH 30 0
BBX 30 25 0 -5
BITMAP
AAAAAAA8
55555554
AAAAAAA8
55555554
AAAAAAA8
55555554
AAAAAAA8
55555554
AAAAAAA8
55555554
AAAAAAA8
55555554
AAAAAAA8
55555554
AAAAAAA8
55555554
AAAAAAA8
55555554
AAAAAAA8
55555554
AAAAAAA8
55555554
AAAAAAA8
55555554
AAAAAAA8
ENDCHAR

STARTCHAR HT
ENCODING 98
SWIDTH 1131 0
DWIDTH 30 0
BBX 30 25 0 -5
BITMAP
00000000
00000000
00000000
00000000
7E0FC000
7E0FC000
7E0FC000
7FFFC000
7FFFC000
7FFFC000
7E0FC000
7E0FC000
7E0FC000
00000000
0000FFF8
0000FFF8
0000FFF8
00001F80
00001F80
00001F80
00001F80
00001F80
00001F80
00001F80
00000000
ENDCHAR

STARTCHAR FF
ENCODING 99
SWIDTH 1131 0
DWIDTH 30 0
BBX 30 25 0 -5
BITMAP
00000000
00000000
00000000
00000000
00000000
3FFF0000
3FFF0000
3FFF0000
3F000000
3F000000
3FF80000
3FF80000
3F000000
3F00FFF0
3F00FFF0
0000FFF0
0000FC00
0000FC00
0000FF80
0000FF80
0000FC00
0000FC00
0000FC00
00000000
00000000
ENDCHAR

STARTCHAR CR
ENCODING 100
SWIDTH 1131 0
DWIDTH 30 0
BBX 30 25 0 -5
BITMAP
00000000
00000000
00000000
00000000
07F80000
3FFF0000
7FFF8000
7E0F8000
7E000000
7E000000
7FFF8000
3FFF0000
07F80000
00000000
0003FFF0
0003FFF8
0003F0F8
0003F0F8
0003FFF0
0003FFF0
0003F1F8
0003F0F8
00000000
00000000
00000000
ENDCHAR

STARTCHAR LF
ENCODING 101
SWIDTH 1131 0
DWIDTH 30 0
BBX 30 25 0 -5
BITMAP
00000000
00000000
00000000
00000000
7E000000
7E000000
7E000000
7E000000
7E000000
7FFF0000
7FFF0000
7FFF0000
00000000
0000FFF8
0000FFF8
0000FFF8
0000FC00
0000FC00
0000FFC0
0000FFC0
0000FC00
0000FC00
00000000
00000000
00000000
ENDCHAR

STARTCHAR degree
ENCODING 102
SWIDTH 1131 0
DWIDTH 30 0
BBX 30 25 0 -5
BITMAP
00000000
00000000
00000000
003FF000
01FFFE00
03F03F00
03F03F00
03F03F00
03F03F00
01FFFE00
003FF000
00000000
00000000
00000000
00000000
00000000
00000000
00000000
00000000
00000000
00000000
00000000
00000000
00000000
00000000
ENDCHAR

STARTCHAR plusminus
ENCODING 103
SWIDTH 1131 0
DWIDTH 30 0
BBX 30 25 0 -5
BITMAP
00000000
00000000
00000000
00000000
00000000
001FE000
001FE000
001FE000
001FE000
3FFFFFF0
3FFFFFF0
3FFFFFF0
001FE000
001FE000
001FE000
001FE000
00000000
3FFFFFF0
3FFFFFF0
3FFFFFF0
00000000
00000000
00000000
00000000
00000000
ENDCHAR

STARTCHAR NL
ENCODING 104
SWIDTH 1131 0
DWIDTH 30 0
BBX 30 25 0 -5
BITMAP
00000000
00000000
00000000
00000000
7C0FC000
7E0FC000
7F0FC000
7FCFC000
7FEFC000
7EFFC000
7E3FC000
7E1FC000
7E0FC000
00000000
00003F00
00003F00
00003F00
00003F00
00003F00
00003F00
00003FF8
00003FF8
00000000
00000000
00000000
ENDCHAR

STARTCHAR VT
ENCODING 105
SWIDTH 1131 0
DWIDTH 30 0
BBX 30 25 0 -5
BITMAP
00000000
00000000
00000000
00000000
0FC3F000
0FC3F000
0FC3F000
0FC3F000
0FE7F000
03FFC000
03FFC000
003C0000
003C0000
00007FF0
00007FF0
00007FF0
00001F80
00001F80
00001F80
00001F80
00001F80
00001F80
00000000
00000000
00000000
ENDCHAR

STARTCHAR ldcornsqlr
ENCODING 106
SWIDTH 1131 0
DWIDTH 30 0
BBX 30 25 0 -5
BITMAP
001FE000
001FE000
001FE000
001FE000
001FE000
001FE000
001FE000
001FE000
001FE000
001FE000
001FE000
FFFFE000
FFFFE000
FFFFE000
00000000
00000000
00000000
00000000
00000000
00000000
00000000
00000000
00000000
00000000
00000000
ENDCHAR

STARTCHAR ldcornsqur
ENCODING 107
SWIDTH 1131 0
DWIDTH 30 0
BBX 30 25 0 -5
BITMAP
00000000
00000000
00000000
00000000
00000000
00000000
00000000
00000000
00000000
00000000
00000000
FFFFE000
FFFFE000
FFFFE000
001FE000
001FE000
001FE000
001FE000
001FE000
001FE000
001FE000
001FE000
001FE000
001FE000
001FE000
ENDCHAR

STARTCHAR ldcornsqul
ENCODING 108
SWIDTH 1131 0
DWIDTH 30 0
BBX 30 25 0 -5
BITMAP
00000000
00000000
00000000
00000000
00000000
00000000
00000000
00000000
00000000
00000000
00000000
001FFFFC
001FFFFC
001FFFFC
001FE000
001FE000
001FE000
001FE000
001FE000
001FE000
001FE000
001FE000
001FE000
001FE000
001FE000
ENDCHAR

STARTCHAR ldcornsqll
ENCODING 109
SWIDTH 1131 0
DWIDTH 30 0
BBX 30 25 0 -5
BITMAP
001FE000
001FE000
001FE000
001FE000
001FE000
001FE000
001FE000
001FE000
001FE000
001FE000
001FE000
001FFFFC
001FFFFC
001FFFFC
00000000
00000000
00000000
00000000
00000000
00000000
00000000
00000000
00000000
00000000
00000000
ENDCHAR

STARTCHAR ldcross
ENCODING 110
SWIDTH 1131 0
DWIDTH 30 0
BBX 30 25 0 -5
BITMAP
001FE000
001FE000
001FE000
001FE000
001FE000
001FE000
001FE000
001FE000
001FE000
001FE000
001FE000
FFFFFFFC
FFFFFFFC
FFFFFFFC
001FE000
001FE000
001FE000
001FE000
001FE000
001FE000
001FE000
001FE000
001FE000
001FE000
001FE000
ENDCHAR

STARTCHAR ldscan1
ENCODING 111
SWIDTH 1131 0
DWIDTH 30 0
BBX 30 25 0 -5
BITMAP
00000000
00000000
FFFFFFFC
FFFFFFFC
FFFFFFFC
00000000
00000000
00000000
00000000
00000000
00000000
00000000
00000000
00000000
00000000
00000000
00000000
00000000
00000000
00000000
00000000
00000000
00000000
00000000
00000000
ENDCHAR

STARTCHAR ldscan3
ENCODING 112
SWIDTH 1131 0
DWIDTH 30 0
BBX 30 25 0 -5
BITMAP
00000000
00000000
00000000
00000000
00000000
00000000
00000000
FFFFFFFC
FFFFFFFC
FFFFFFFC
00000000
00000000
00000000
00000000
00000000
00000000
00000000
00000000
00000000
00000000
00000000
00000000
00000000
00000000
00000000
ENDCHAR

STARTCHAR ldhorizontal
ENCODING 113
SWIDTH 1131 0
DWIDTH 30 0
BBX 30 25 0 -5
BITMAP
00000000
00000000
00000000
00000000
00000000
00000000
00000000
00000000
00000000
00000000
00000000
FFFFFFFC
FFFFFFFC
FFFFFFFC
00000000
00000000
00000000
00000000
00000000
00000000
00000000
00000000
00000000
00000000
00000000
ENDCHAR

STARTCHAR ldscan7
ENCODING 114
SWIDTH 1131 0
DWIDTH 30 0
BBX 30 25 0 -5
BITMAP
00000000
00000000
00000000
00000000
00000000
00000000
00000000
00000000
00000000
00000000
00000000
00000000
00000000
00000000
00000000
00000000
00000000
FFFFFFFC
FFFFFFFC
FFFFFFFC
00000000
00000000
00000000
00000000
00000000
ENDCHAR

STARTCHAR ldscan9
ENCODING 115
SWIDTH 1131 0
DWIDTH 30 0
BBX 30 25 0 -5
BITMAP
00000000
00000000
00000000
00000000
00000000
00000000
00000000
00000000
00000000
00000000
00000000
00000000
00000000
00000000
00000000
00000000
00000000
00000000
00000000
00000000
00000000
00000000
FFFFFFFC
FFFFFFFC
FFFFFFFC
ENDCHAR

STARTCHAR ldteelft
ENCODING 116
SWIDTH 1131 0
DWIDTH 30 0
BBX 30 25 0 -5
BITMAP
001FE000
001FE000
001FE000
001FE000
001FE000
001FE000
001FE000
001FE000
001FE000
001FE000
001FE000
001FFFFC
001FFFFC
001FFFFC
001FE000
001FE000
001FE000
001FE000
001FE000
001FE000
001FE000
001FE000
001FE000
001FE000
001FE000
ENDCHAR

STARTCHAR ldteert
ENCODING 117
SWIDTH 1131 0
DWIDTH 30 0
BBX 30 25 0 -5
BITMAP
001FE000
001FE000
001FE000
001FE000
001FE000
001FE000
001FE000
001FE000
001FE000
001FE000
001FE000
FFFFE000
FFFFE000
FFFFE000
001FE000
001FE000
001FE000
001FE000
001FE000
001FE000
001FE000
001FE000
001FE000
001FE000
001FE000
ENDCHAR

STARTCHAR ldteebt
ENCODING 118
SWIDTH 1131 0
DWIDTH 30 0
BBX 30 25 0 -5
BITMAP
001FE000
001FE000
001FE000
001FE000
001FE000
001FE000
001FE000
001FE000
001FE000
001FE000
001FE000
FFFFFFFC
FFFFFFFC
FFFFFFFC
00000000
00000000
00000000
00000000
00000000
00000000
00000000
00000000
00000000
00000000
00000000
ENDCHAR

STARTCHAR ldteetp
ENCODING 119
SWIDTH 1131 0
DWIDTH 30 0
BBX 30 25 0 -5
BITMAP
00000000
00000000
00000000
00000000
00000000
00000000
00000000
00000000
00000000
00000000
00000000
FFFFFFFC
FFFFFFFC
FFFFFFFC
001FE000
001FE000
001FE000
001FE000
001FE000
001FE000
001FE000
001FE000
001FE000
001FE000
001FE000
ENDCHAR

STARTCHAR ldvertical
ENCODING 120
SWIDTH 1131 0
DWIDTH 30 0
BBX 30 25 0 -5
BITMAP
001FE000
001FE000
001FE000
001FE000
001FE000
001FE000
001FE000
001FE000
001FE000
001FE000
001FE000
001FE000
001FE000
001FE000
001FE000
001FE000
001FE000
001FE000
001FE000
001FE000
001FE000
001FE000
001FE000
001FE000
001FE000
ENDCHAR

STARTCHAR lessequal
ENCODING 121
SWIDTH 1131 0
DWIDTH 30 0
BBX 30 25 0 -5
BITMAP
00000000
00000000
00000000
00000000
00000000
00000000
00000FF8
0000FFF8
001FFFF8
03FFF000
7FF00000
7FF00000
03FFF000
001FFFF8
0003FFF8
00000FF8
00000000
7FFFFFF8
7FFFFFF8
7FFFFFF8
00000000
00000000
00000000
00000000
00000000
ENDCHAR

STARTCHAR greaterequal
ENCODING 122
SWIDTH 1131 0
DWIDTH 30 0
BBX 30 25 0 -5
BITMAP
00000000
00000000
00000000
00000000
00000000
00000000
7FC00000
7FFC0000
7FFFE000
003FFF00
00003FF8
00003FF8
003FFF00
7FFFE000
7FFF0000
7FC00000
00000000
7FFFFFF8
7FFFFFF8
7FFFFFF8
00000000
00000000
00000000
00000000
00000000
ENDCHAR

STARTCHAR pi
ENCODING 123
SWIDTH 1131 0
DWIDTH 30 0
BBX 30 25 0 -5
BITMAP
00000000
00000000
00000000
00000000
00000000
00000000
00000000
00000000
7FFFFFF8
7FFFFFF8
0FE03F80
0FE03F80
0FE07F00
3FC07F00
3FC07E00
3FC07E00
3FC0FE00
7F00FE00
7F00FFC0
7F007FC0
00000000
00000000
00000000
00000000
00000000
ENDCHAR

STARTCHAR notequal
ENCODING 124
SWIDTH 1131 0
DWIDTH 30 0
BBX 30 25 0 -5
BITMAP
00000000
00000000
00000000
00000000
00000000
00000000
00001E00
00003C00
00003C00
3FFFFFF0
3FFFFFF0
3FFFFFF0
0003C000
00078000
3FFFFFF0
3FFFFFF0
3FFFFFF0
00F00000
00F00000
01E00000
00000000
00000000
00000000
00000000
00000000
ENDCHAR

STARTCHAR sterling
ENCODING 125
SWIDTH 1131 0
DWIDTH 30 0
BBX 30 25 0 -5
BITMAP
00000000
00000000
00000000
00000000
00000000
003FFF00
01FFFFC0
01FFFFC0
01FF0FC0
00FF0000
3FFFFF00
3FFFFF00
3FFFFF00
003F8000
003F8000
003F8000
003FC078
0FFFFFF8
0FFFFFF8
0FF07FC0
00000000
00000000
00000000
00000000
00000000
ENDCHAR

STARTCHAR periodcentered
ENCODING 126
SWIDTH 1131 0
DWIDTH 30 0
BBX 30 25 0 -5
BITMAP
00000000
00000000
00000000
00000000
00000000
00000000
00000000
00000000
00000000
00000000
000FC000
003FF000
003FF000
003FF000
000FC000
00000000
00000000
00000000
00000000
00000000
00000000
00000000
00000000
00000000
00000000
ENDCHAR

STARTCHAR Error
ENCODING 159
SWIDTH 1131 0
DWIDTH 30 0
BBX 30 25 0 -5
BITMAP
03FFFF80
0FFFFFF0
3FFFFFF8
7FF81FFC
7FF00FFC
FFE003FC
FFE003FC
FFE003FC
FFF00000
FFF80000
7FFF8000
3FFFE000
0FFFF000
03FFFC00
003FFC00
000FFC00
000FFC00
000FFC00
00000000
00000000
0007F000
000FFC00
000FFC00
000FFC00
0007F000
ENDCHAR

STARTCHAR space
ENCODING 160
SWIDTH 1131 0
DWIDTH 30 0
BBX 30 25 0 -5
BITMAP
00000000
00000000
00000000
00000000
00000000
00000000
00000000
00000000
00000000
00000000
00000000
00000000
00000000
00000000
00000000
00000000
00000000
00000000
00000000
00000000
00000000
00000000
00000000
00000000
00000000
ENDCHAR

STARTCHAR ldradicalbt
ENCODING 161
SWIDTH 1131 0
DWIDTH 30 0
BBX 30 25 0 -5
BITMAP
001FE000
001FE000
001FE000
001FE000
001FE000
3C1FE000
3E1FE000
3F1FE000
3FDFE000
0FFFE000
07FFE000
03FFE000
01FFE000
00FFE000
003FE000
001FE000
00000000
00000000
00000000
00000000
00000000
00000000
00000000
00000000
00000000
ENDCHAR

STARTCHAR ldradicaltp
ENCODING 162
SWIDTH 1131 0
DWIDTH 30 0
BBX 30 25 0 -5
BITMAP
00000000
00000000
00000000
00000000
00000000
00000000
00000000
00000000
00000000
00000000
00000000
001FFFFC
001FFFFC
001FFFFC
001FE000
001FE000
001FE000
001FE000
001FE000
001FE000
001FE000
001FE000
001FE000
001FE000
001FE000
ENDCHAR

STARTCHAR ldhorizontal
ENCODING 163
SWIDTH 1131 0
DWIDTH 30 0
BBX 30 25 0 -5
BITMAP
00000000
00000000
00000000
00000000
00000000
00000000
00000000
00000000
00000000
00000000
00000000
FFFFFFFC
FFFFFFFC
FFFFFFFC
00000000
00000000
00000000
00000000
00000000
00000000
00000000
00000000
00000000
00000000
00000000
ENDCHAR

STARTCHAR ldintegraltp
ENCODING 164
SWIDTH 1131 0
DWIDTH 30 0
BBX 30 25 0 -5
BITMAP
00000000
00000000
0000FFF8
0007FFF8
000FFFF8
000FF000
001FE000
001FE000
001FE000
001FE000
001FE000
001FE000
001FE000
001FE000
001FE000
001FE000
001FE000
001FE000
001FE000
001FE000
001FE000
001FE000
001FE000
001FE000
001FE000
ENDCHAR

STARTCHAR ldintegralbt
ENCODING 165
SWIDTH 1131 0
DWIDTH 30 0
BBX 30 25 0 -5
BITMAP
001FE000
001FE000
001FE000
001FE000
001FE000
001FE000
001FE000
001FE000
001FE000
001FE000
001FE000
001FE000
001FE000
001FE000
001FE000
001FE000
001FE000
001FE000
001FE000
001FE000
003FC000
FFFFC000
FFFF8000
FFFC0000
00000000
ENDCHAR

STARTCHAR ldvertical
ENCODING 166
SWIDTH 1131 0
DWIDTH 30 0
BBX 30 25 0 -5
BITMAP
001FE000
001FE000
001FE000
001FE000
001FE000
001FE000
001FE000
001FE000
001FE000
001FE000
001FE000
001FE000
001FE000
001FE000
001FE000
001FE000
001FE000
001FE000
001FE000
001FE000
001FE000
001FE000
001FE000
001FE000
001FE000
ENDCHAR

STARTCHAR ldbracketlfttp
ENCODING 167
SWIDTH 1131 0
DWIDTH 30 0
BBX 30 25 0 -5
BITMAP
00000000
00000000
001FFF80
001FFF80
001FFF80
001FE000
001FE000
001FE000
001FE000
001FE000
001FE000
001FE000
001FE000
001FE000
001FE000
001FE000
001FE000
001FE000
001FE000
001FE000
001FE000
001FE000
001FE000
001FE000
001FE000
ENDCHAR

STARTCHAR ldbracketlftbt
ENCODING 168
SWIDTH 1131 0
DWIDTH 30 0
BBX 30 25 0 -5
BITMAP
001FE000
001FE000
001FE000
001FE000
001FE000
001FE000
001FE000
001FE000
001FE000
001FE000
001FE000
001FE000
001FE000
001FE000
001FE000
001FE000
001FE000
001FE000
001FE000
001FE000
001FE000
001FFF80
001FFF80
001FFF80
00000000
ENDCHAR

STARTCHAR ldbracketrttp
ENCODING 169
SWIDTH 1131 0
DWIDTH 30 0
BBX 30 25 0 -5
BITMAP
00000000
00000000
07FFE000
07FFE000
07FFE000
001FE000
001FE000
001FE000
001FE000
001FE000
001FE000
001FE000
001FE000
001FE000
001FE000
001FE000
001FE000
001FE000
001FE000
001FE000
001FE000
001FE000
001FE000
001FE000
001FE000
ENDCHAR

STARTCHAR ldbracketrtbt
ENCODING 170
SWIDTH 1131 0
DWIDTH 30 0
BBX 30 25 0 -5
BITMAP
001FE000
001FE000
001FE000
001FE000
001FE000
001FE000
001FE000
001FE000
001FE000
001FE000
001FE000
001FE000
001FE000
001FE000
001FE000
001FE000
001FE000
001FE000
001FE000
001FE000
001FE000
07FFE000
07FFE000
07FFE000
00000000
ENDCHAR

STARTCHAR ldbracelfttp
ENCODING 171
SWIDTH 1131 0
DWIDTH 30 0
BBX 30 25 0 -5
BITMAP
00000000
00000000
0000FFF0
0007FFF0
000FFFF0
000FF000
001FE000
001FE000
001FE000
001FE000
001FE000
001FE000
001FE000
001FE000
001FE000
001FE000
001FE000
001FE000
001FE000
001FE000
001FE000
001FE000
001FE000
001FE000
001FE000
ENDCHAR

STARTCHAR ldbracelftbt
ENCODING 172
SWIDTH 1131 0
DWIDTH 30 0
BBX 30 25 0 -5
BITMAP
001FE000
001FE000
001FE000
001FE000
001FE000
001FE000
001FE000
001FE000
001FE000
001FE000
001FE000
001FE000
001FE000
001FE000
001FE000
001FE000
001FE000
001FE000
001FE000
001FE000
000FF000
000FFFF0
0007FFF0
0000FFF0
00000000
ENDCHAR

STARTCHAR ldbracerttp
ENCODING 173
SWIDTH 1131 0
DWIDTH 30 0
BBX 30 25 0 -5
BITMAP
00000000
00000000
3FFC0000
3FFF8000
3FFFC000
003FC000
001FE000
001FE000
001FE000
001FE000
001FE000
001FE000
001FE000
001FE000
001FE000
001FE000
001FE000
001FE000
001FE000
001FE000
001FE000
001FE000
001FE000
001FE000
001FE000
ENDCHAR

STARTCHAR ldbracertbt
ENCODING 174
SWIDTH 1131 0
DWIDTH 30 0
BBX 30 25 0 -5
BITMAP
001FE000
001FE000
001FE000
001FE000
001FE000
001FE000
001FE000
001FE000
001FE000
001FE000
001FE000
001FE000
001FE000
001FE000
001FE000
001FE000
001FE000
001FE000
001FE000
001FE000
003FC000
3FFFC000
3FFF8000
3FFC0000
00000000
ENDCHAR

STARTCHAR ldbracelftmid
ENCODING 175
SWIDTH 1131 0
DWIDTH 30 0
BBX 30 25 0 -5
BITMAP
001FE000
001FE000
001FE000
001FE000
001FE000
001FE000
001FE000
001FE000
001FC000
001FC000
003F8000
003F8000
03FC0000
03FC0000
003F8000
003F8000
001FC000
001FC000
001FE000
001FE000
001FE000
001FE000
001FE000
001FE000
001FE000
ENDCHAR

STARTCHAR ldbracertmid
ENCODING 176
SWIDTH 1131 0
DWIDTH 30 0
BBX 30 25 0 -5
BITMAP
001FE000
001FE000
001FE000
001FE000
001FE000
001FE000
001FE000
001FE000
000FE000
000FE000
0007F000
0007F000
0000FF00
0000FF00
0007F000
0007F000
000FE000
000FE000
001FE000
001FE000
001FE000
001FE000
001FE000
001FE000
001FE000
ENDCHAR

STARTCHAR ldsigmalfttp
ENCODING 177
SWIDTH 1131 0
DWIDTH 30 0
BBX 30 25 0 -5
BITMAP
00000000
00000000
00000000
00000000
00000000
00000000
00000000
00000000
00000000
00000000
00000000
000FFFFC
000FFFFC
000FFFFC
0007FC00
0003FE00
0000FF00
00007F80
00003FC0
00001FF0
00000FF8
000003FC
000001FC
000000FC
0000007C
ENDCHAR

STARTCHAR ldsigmalftbt
ENCODING 178
SWIDTH 1131 0
DWIDTH 30 0
BBX 30 25 0 -5
BITMAP
0000007C
000000FC
000001FC
000003FC
00000FF8
00001FF0
00003FC0
00007F80
0000FF00
0003FE00
0007FC00
000FFFFC
001FFFFC
001FFFFC
00000000
00000000
00000000
00000000
00000000
00000000
00000000
00000000
00000000
00000000
00000000
ENDCHAR

STARTCHAR ldbackslash
ENCODING 179
SWIDTH 1131 0
DWIDTH 30 0
BBX 30 25 0 -5
BITMAP
F8000000
FC000000
FE000000
FF000000
7FC00000
3FE00000
0FF00000
07F80000
03FC0000
01FF0000
00FF8000
003FC000
001FE000
000FF000
0007FC00
0003FE00
0000FF00
00007F80
00003FC0
00001FF0
00000FF8
000003FC
000001FC
000000FC
0000007C
ENDCHAR

STARTCHAR ldslash
ENCODING 180
SWIDTH 1131 0
DWIDTH 30 0
BBX 30 25 0 -5
BITMAP
0000007C
000000FC
000001FC
000003FC
00000FF8
00001FF0
00003FC0
00007F80
0000FF00
0003FE00
0007FC00
000FF000
001FE000
003FC000
00FF8000
01FF0000
03FC0000
07F80000
0FF00000
3FE00000
7FC00000
FF000000
FE000000
FC000000
78000000
ENDCHAR

STARTCHAR ldsigmarttp
ENCODING 181
SWIDTH 1131 0
DWIDTH 30 0
BBX 30 25 0 -5
BITMAP
00000000
00000000
00000000
00000000
00000000
00000000
00000000
00000000
00000000
00000000
00000000
FFFFFFFC
FFFFFFFC
FFFFFFFC
000001FC
000001FC
000001FC
000001FC
000001FC
000001FC
00000000
00000000
00000000
00000000
00000000
ENDCHAR

STARTCHAR ldsigmartbt
ENCODING 182
SWIDTH 1131 0
DWIDTH 30 0
BBX 30 25 0 -5
BITMAP
00000000
00000000
00000000
00000000
00000000
00000000
000001FC
000001FC
000001FC
000001FC
000001FC
FFFFFFFC
FFFFFFFC
FFFFFFFC
00000000
00000000
00000000
00000000
00000000
00000000
00000000
00000000
00000000
00000000
00000000
ENDCHAR

STARTCHAR ldsigmamid
ENCODING 183
SWIDTH 1131 0
DWIDTH 30 0
BBX 30 25 0 -5
BITMAP
F0000000
F8000000
FC000000
FE000000
7F000000
3FC00000
0FE00000
07F00000
03F80000
01FC0000
00FF0000
003F0000
003F0000
00FF0000
01FC0000
03F80000
07F00000
0FE00000
3FC00000
7F000000
FE000000
FC000000
F8000000
F0000000
00000000
ENDCHAR

STARTCHAR lessequal
ENCODING 188
SWIDTH 1131 0
DWIDTH 30 0
BBX 30 25 0 -5
BITMAP
00000000
00000000
00000000
00000000
00000000
00000000
00000FF8
0000FFF8
001FFFF8
03FFF000
7FF00000
7FF00000
03FFF000
001FFFF8
0003FFF8
00000FF8
00000000
7FFFFFF8
7FFFFFF8
7FFFFFF8
00000000
00000000
00000000
00000000
00000000
ENDCHAR

STARTCHAR notequal
ENCODING 189
SWIDTH 1131 0
DWIDTH 30 0
BBX 30 25 0 -5
BITMAP
00000000
00000000
00000000
00000000
00000000
00000000
00001E00
00003C00
00003C00
3FFFFFF0
3FFFFFF0
3FFFFFF0
0003C000
00078000
3FFFFFF0
3FFFFFF0
3FFFFFF0
00F00000
00F00000
01E00000
00000000
00000000
00000000
00000000
00000000
ENDCHAR

STARTCHAR greaterequal
ENCODING 190
SWIDTH 1131 0
DWIDTH 30 0
BBX 30 25 0 -5
BITMAP
00000000
00000000
00000000
00000000
00000000
00000000
7FC00000
7FFC0000
7FFFE000
003FFF00
00003FF8
00003FF8
003FFF00
7FFFE000
7FFF0000
7FC00000
00000000
7FFFFFF8
7FFFFFF8
7FFFFFF8
00000000
00000000
00000000
00000000
00000000
ENDCHAR

STARTCHAR integral
ENCODING 191
SWIDTH 1131 0
DWIDTH 30 0
BBX 30 25 0 -5
BITMAP
00000000
0000FFF0
0007FFF8
000FE0F8
000FE0F8
001FE000
001FE000
001FE000
001FE000
001FE000
001FE000
001FE000
001FE000
001FE000
001FE000
001FE000
001FE000
001FE000
001FE000
001FE000
001FE000
7C1FE000
7C1FC000
7FFFC000
3FFF0000
ENDCHAR

STARTCHAR therefore
ENCODING 192
SWIDTH 1131 0
DWIDTH 30 0
BBX 30 25 0 -5
BITMAP
00000000
00000000
00000000
00000000
00000000
00000000
00000000
000FC000
003FF000
003FF000
003FF000
000FC000
00000000
00000000
00000000
0FC00FC0
7FF03FF8
7FF03FF8
7FF03FF8
0FC00FC0
00000000
00000000
00000000
00000000
00000000
ENDCHAR

STARTCHAR proportional
ENCODING 193
SWIDTH 1131 0
DWIDTH 30 0
BBX 30 25 0 -5
BITMAP
00000000
00000000
00000000
00000000
00000000
00000000
00000000
00000000
03FF1FF8
0FFFFFF8
3F0FFC00
7E03F000
7E03E000
7E03E000
7E03E000
7E03F000
3F0FFE00
0FFFFFF8
03FC1FF8
00000000
00000000
00000000
00000000
00000000
00000000
ENDCHAR

STARTCHAR infinity
ENCODING 194
SWIDTH 1131 0
DWIDTH 30 0
BBX 30 25 0 -5
BITMAP
00000000
00000000
00000000
00000000
00000000
00000000
00000000
00000000
03FC7F80
0FFFFFF0
3F0FE1F8
7E07C0FC
7E07C0FC
7E07C0FC
7E07C0FC
7E07C0FC
3F0FE1F8
0FFFFFF0
03FC7F80
00000000
00000000
00000000
00000000
00000000
00000000
ENDCHAR

STARTCHAR divide
ENCODING 195
SWIDTH 1131 0
DWIDTH 30 0
BBX 30 25 0 -5
BITMAP
00000000
00000000
00000000
00000000
00000000
000FC000
003FF000
003FF000
000FC000
00000000
00000000
7FFFFFF8
7FFFFFF8
7FFFFFF8
00000000
00000000
000FC000
003FF000
003FF000
000FC000
00000000
00000000
00000000
00000000
00000000
ENDCHAR

STARTCHAR Delta
ENCODING 196
SWIDTH 1131 0
DWIDTH 30 0
BBX 30 25 0 -5
BITMAP
00000000
00000000
00000000
00000000
00000000
000FC000
001FE000
003FF000
00FFFC00
00FFFE00
01FC7F00
03F83F00
07F01F80
0FE00FC0
0FC00FF0
3FC003F0
7F0001F8
7FFFFFF8
7FFFFFF8
7FFFFFF8
00000000
00000000
00000000
00000000
00000000
ENDCHAR

STARTCHAR gradient
ENCODING 197
SWIDTH 1131 0
DWIDTH 30 0
BBX 30 25 0 -5
BITMAP
00000000
00000000
00000000
00000000
00000000
7FFFFFF8
7FFFFFF8
7FFFFFF8
7F0001F8
3FC003F0
0FC00FF0
0FE00FC0
07F01F80
03F83F00
01FC7F00
00FFFE00
00FFFC00
003FF000
001FE000
000FC000
00000000
00000000
00000000
00000000
00000000
ENDCHAR

STARTCHAR Phi
ENCODING 198
SWIDTH 1131 0
DWIDTH 30 0
BBX 30 25 0 -5
BITMAP
00000000
00000000
00000000
00000000
00000000
00FFFE00
00FFFE00
000FE000
03FFFF80
0FFFFFC0
3F0FE1F0
3F0FE1F0
3F0FE1F0
3F0FE1F0
3F0FE1F0
0FFFFFC0
03FFFF80
000FE000
00FFFE00
00FFFE00
00000000
00000000
00000000
00000000
00000000
ENDCHAR

STARTCHAR Gamma
ENCODING 199
SWIDTH 1131 0
DWIDTH 30 0
BBX 30 25 0 -5
BITMAP
00000000
00000000
00000000
00000000
00000000
3FFFFFF0
3FFFFFF0
3FFFFFF0
03FC0FF0
03FC0FF0
03FC0FF0
03FC0FF0
03FC0000
03FC0000
03FC0000
03FC0000
03FC0000
3FFFE000
3FFFE000
3FFFE000
00000000
00000000
00000000
00000000
00000000
ENDCHAR

STARTCHAR similar
ENCODING 200
SWIDTH 1131 0
DWIDTH 30 0
BBX 30 25 0 -5
BITMAP
00000000
00000000
00000000
00000000
00000000
00000000
00000000
00000000
00000000
01FC03C0
07FF83C0
07FFE3C0
0FCFFFC0
0F00FF80
0F003F00
00000000
00000000
00000000
00000000
00000000
00000000
00000000
00000000
00000000
00000000
ENDCHAR

STARTCHAR approxequal
ENCODING 201
SWIDTH 1131 0
DWIDTH 30 0
BBX 30 25 0 -5
BITMAP
00000000
00000000
00000000
00000000
00000000
00000000
00000000
01FC03C0
07FF83C0
07FFE3C0
0FCFFFC0
0F03FF80
0F007F00
00000000
00000000
00000000
3FFFFFF0
3FFFFFF0
3FFFFFF0
00000000
00000000
00000000
00000000
00000000
00000000
ENDCHAR

STARTCHAR Theta
ENCODING 202
SWIDTH 1131 0
DWIDTH 30 0
BBX 30 25 0 -5
BITMAP
00000000
00000000
00000000
00000000
00000000
00FFFC00
03FFFF00
0FF03FC0
3FE01FF0
3FC00FF0
7FC00FF8
7FCFCFF8
7FCFCFF8
7FCFCFF8
7FC00FF8
3FC00FF0
3FE01FF0
0FF03FC0
03FFFF00
00FFFC00
00000000
00000000
00000000
00000000
00000000
ENDCHAR

STARTCHAR multiply
ENCODING 203
SWIDTH 1131 0
DWIDTH 30 0
BBX 30 25 0 -5
BITMAP
00000000
00000000
00000000
00000000
00000000
00000000
00000000
01C00300
07E00F80
0FF83FC0
03FFFF80
01FFFE00
003FF000
003FF000
01FFFE00
07FFFF80
0FF83FC0
07E01F80
03C00F00
00000000
00000000
00000000
00000000
00000000
00000000
ENDCHAR

STARTCHAR Lambda
ENCODING 204
SWIDTH 1131 0
DWIDTH 30 0
BBX 30 25 0 -5
BITMAP
00000000
00000000
00000000
00000000
00000000
000FC000
001FE000
003FF000
003FFC00
00FFFC00
01FCFE00
03F87F00
03F03F80
07E03F80
0FC01FC0
3FC01FF0
3F000FF0
7FF07FF8
7FF07FF8
7FF07FF8
00000000
00000000
00000000
00000000
00000000
ENDCHAR

STARTCHAR arrowdblboth
ENCODING 205
SWIDTH 1131 0
DWIDTH 30 0
BBX 30 25 0 -5
BITMAP
00000000
00000000
00000000
00000000
00000000
01E01E00
03C00F00
07000380
0FFFFFC0
3FFFFFF0
7FFFFFF8
FE0001FC
FE0001FC
7FFFFFF8
3FFFFFF0
0FFFFFC0
07000380
03C00F00
01E01E00
00000000
00000000
00000000
00000000
00000000
00000000
ENDCHAR

STARTCHAR arrowdblright
ENCODING 206
SWIDTH 1131 0
DWIDTH 30 0
BBX 30 25 0 -5
BITMAP
00000000
00000000
00000000
00000000
00000000
00003C00
00001E00
00000F00
3FFFFF80
3FFFFFC0
3FFFFFF0
000003F8
000003F8
3FFFFFF0
3FFFFFC0
3FFFFF80
00000F00
00001E00
00003C00
00000000
00000000
00000000
00000000
00000000
00000000
ENDCHAR

STARTCHAR equivalence
ENCODING 207
SWIDTH 1131 0
DWIDTH 30 0
BBX 30 25 0 -5
BITMAP
00000000
00000000
00000000
00000000
00000000
00000000
3FFFFFF0
3FFFFFF0
3FFFFFF0
00000000
00000000
3FFFFFF0
3FFFFFF0
3FFFFFF0
00000000
00000000
3FFFFFF0
3FFFFFF0
3FFFFFF0
00000000
00000000
00000000
00000000
00000000
00000000
ENDCHAR

STARTCHAR Pi
ENCODING 208
SWIDTH 1131 0
DWIDTH 30 0
BBX 30 25 0 -5
BITMAP
00000000
00000000
00000000
00000000
00000000
7FFFFFF8
7FFFFFF8
7FFFFFF8
0FF03FC0
0FF03FC0
0FF03FC0
0FF03FC0
0FF03FC0
0FF03FC0
0FF03FC0
0FF03FC0
0FF03FC0
7FF03FF8
7FF03FF8
7FF03FF8
00000000
00000000
00000000
00000000
00000000
ENDCHAR

STARTCHAR Psi
ENCODING 209
SWIDTH 1131 0
DWIDTH 30 0
BBX 30 25 0 -5
BITMAP
00000000
00000000
00000000
00000000
00000000
01FFFE00
01FFFE00
001FE000
3E1FE1F0
3E1FE1F0
3E1FE1F0
3E1FE1F0
3E1FE1F0
3F1FE3F0
0FFFFFC0
03FFFF00
001FE000
001FE000
01FFFE00
01FFFE00
00000000
00000000
00000000
00000000
00000000
ENDCHAR

STARTCHAR Sigma
ENCODING 211
SWIDTH 1131 0
DWIDTH 30 0
BBX 30 25 0 -5
BITMAP
00000000
00000000
00000000
00000000
00000000
3FFFFFF8
3FFFFFF8
3FFFFFF8
0FF000F8
03FC00F8
00FF8000
001FC000
000FE000
003FC000
01FF00F8
03F800F8
0FF000F8
3FFFFFF8
3FFFFFF8
3FFFFFF8
00000000
00000000
00000000
00000000
00000000
ENDCHAR

STARTCHAR radical
ENCODING 214
SWIDTH 1131 0
DWIDTH 30 0
BBX 30 25 0 -5
BITMAP
00000000
00000000
000001FC
000001FC
000003FC
000003F0
00000FC0
00000FC0
FE001F80
FE001F80
7F003F00
3F003F00
3FC07E00
0FC07E00
0FE0FC00
07E0FC00
07F3F000
03FFF000
03FFE000
01FFE000
01FFC000
00FFC000
00FF8000
00000000
00000000
ENDCHAR

STARTCHAR Omega
ENCODING 215
SWIDTH 1131 0
DWIDTH 30 0
BBX 30 25 0 -5
BITMAP
00000000
00000000
00000000
00000000
00000000
003FF000
01FFFE00
07F03F80
0FE01FC0
3FE01FF0
3FE01FF0
3FE01FF0
3FE01FF0
0FE01FC0
07E01F80
03F03F00
00F87C00
0FF87FC0
0FF87FC0
0FF87FC0
00000000
00000000
00000000
00000000
00000000
ENDCHAR

STARTCHAR Xi
ENCODING 216
SWIDTH 1131 0
DWIDTH 30 0
BBX 30 25 0 -5
BITMAP
00000000
00000000
00000000
00000000
00000000
3FFFFFF0
3FFFFFF0
3FFFFFF0
3FC00FF0
00000000
03F03F00
03FFFF00
03FFFF00
03F03F00
00000000
3FC00FF0
3FC00FF0
3FFFFFF0
3FFFFFF0
3FFFFFF0
00000000
00000000
00000000
00000000
00000000
ENDCHAR

STARTCHAR Upsilon1
ENCODING 217
SWIDTH 1131 0
DWIDTH 30 0
BBX 30 25 0 -5
BITMAP
00000000
00000000
00000000
00000000
00000000
0FF01FF0
0FF01FF0
0FF01FF0
03F83F80
01F83F00
00FC7E00
00FC7E00
003FF000
003FF000
001FE000
001FE000
001FE000
01FFFE00
01FFFE00
01FFFE00
00000000
00000000
00000000
00000000
00000000
ENDCHAR

STARTCHAR propersubset
ENCODING 218
SWIDTH 1131 0
DWIDTH 30 0
BBX 30 25 0 -5
BITMAP
00000000
00000000
00000000
00000000
00000000
003FFFF0
03FFFFF0
03FFFFF0
0FF80000
0FF00000
3FE00000
3FE00000
3FE00000
3FE00000
3FE00000
0FF00000
0FF80000
03FFFFF0
03FFFFF0
003FFFF0
00000000
00000000
00000000
00000000
00000000
ENDCHAR

STARTCHAR propersuperset
ENCODING 219
SWIDTH 1131 0
DWIDTH 30 0
BBX 30 25 0 -5
BITMAP
00000000
00000000
00000000
00000000
00000000
3FFFF000
3FFFFF00
3FFFFF00
00007FC0
00003FC0
00001FF0
00001FF0
00001FF0
00001FF0
00001FF0
00003FC0
00007FC0
3FFFFF00
3FFFFF00
3FFFF000
00000000
00000000
00000000
00000000
00000000
ENDCHAR

STARTCHAR intersection
ENCODING 220
SWIDTH 1131 0
DWIDTH 30 0
BBX 30 25 0 -5
BITMAP
00000000
00000000
00000000
00000000
00000000
01FFFE00
0FFFFFC0
0FFFFFC0
3FE01FF0
3FC00FF0
7FC00FF8
7FC00FF8
7FC00FF8
7FC00FF8
7FC00FF8
7FC00FF8
7FC00FF8
7FC00FF8
7FC00FF8
7FC00FF8
00000000
00000000
00000000
00000000
00000000
ENDCHAR

STARTCHAR union
ENCODING 221
SWIDTH 1131 0
DWIDTH 30 0
BBX 30 25 0 -5
BITMAP
00000000
00000000
00000000
00000000
00000000
7FC00FF8
7FC00FF8
7FC00FF8
7FC00FF8
7FC00FF8
7FC00FF8
7FC00FF8
7FC00FF8
7FC00FF8
7FC00FF8
3FC00FF0
3FE01FF0
0FFFFFC0
0FFFFFC0
01FFFE00
00000000
00000000
00000000
00000000
00000000
ENDCHAR

STARTCHAR logicaland
ENCODING 222
SWIDTH 1131 0
DWIDTH 30 0
BBX 30 25 0 -5
BITMAP
00000000
00000000
00000000
00000000
00000000
00000000
003FF000
003FFC00
00FFFC00
00FFFE00
01FC7F00
03FC7F00
03F83F80
07F83F80
0FF03FC0
0FF01FC0
3FE01FF0
3FC00FF8
7FC00FF8
00000000
00000000
00000000
00000000
00000000
00000000
ENDCHAR

STARTCHAR logicalor
ENCODING 223
SWIDTH 1131 0
DWIDTH 30 0
BBX 30 25 0 -5
BITMAP
00000000
00000000
00000000
00000000
00000000
00000000
7FC00FF8
3FC00FF8
3FE01FF0
0FF01FC0
0FF03FC0
07F83F80
03F83F80
03FC7F00
01FC7F00
00FFFE00
00FFFC00
003FFC00
003FF000
00000000
00000000
00000000
00000000
00000000
00000000
ENDCHAR

STARTCHAR logicalnot
ENCODING 224
SWIDTH 1131 0
DWIDTH 30 0
BBX 30 25 0 -5
BITMAP
00000000
00000000
00000000
00000000
00000000
00000000
00000000
00000000
00000000
3FFFFFF0
3FFFFFF0
3FFFFFF0
00001FF0
00001FF0
00001FF0
00001FF0
00001FF0
00000000
00000000
00000000
00000000
00000000
00000000
00000000
00000000
ENDCHAR

STARTCHAR alpha
ENCODING 225
SWIDTH 1131 0
DWIDTH 30 0
BBX 30 25 0 -5
BITMAP
00000000
00000000
00000000
00000000
00000000
00000000
00000000
00000000
00FFC0F8
03FFF1F8
0FE0FFF8
3FE07F80
3FC03F80
7FC03F00
7FC03E00
7FC03F00
3FC07F00
3FE0FFF8
0FFFFFF8
03FFC3F8
00000000
00000000
00000000
00000000
00000000
ENDCHAR

STARTCHAR beta
ENCODING 226
SWIDTH 1131 0
DWIDTH 30 0
BBX 30 25 0 -5
BITMAP
00000000
00000000
00000000
000FFF80
003FFFF0
00FF03F8
01FC01F8
01F801F8
03F801F8
03F003F0
07F0FFC0
07E0FFC0
0FE01FF0
0FE00FF8
0FC00FF8
3FC00FF8
3FE00FF8
3FF01FF0
7FFFFFF0
7E1FFF80
7E000000
7E000000
FC000000
FC000000
FC000000
ENDCHAR

STARTCHAR chi
ENCODING 227
SWIDTH 1131 0
DWIDTH 30 0
BBX 30 25 0 -5
BITMAP
00000000
00000000
00000000
00000000
00000000
00000000
00000000
00000000
0FF000F8
0FF801F8
07FC0FF8
01FC0FF0
00FF3F80
00FFFF00
003FFC00
001FF000
000FC000
001FE000
00FFF000
01FFFC00
07FBFE00
3FF0FF00
7FC07F80
7F007FC0
7C003FC0
ENDCHAR

STARTCHAR delta
ENCODING 228
SWIDTH 1131 0
DWIDTH 30 0
BBX 30 25 0 -5
BITMAP
00000000
00000000
00000000
001FFFF8
00FFFFF8
01FF8000
01FF0000
003FC000
000FFC00
01FFFF00
07FFFFC0
3FE01FF0
3FC00FF0
7FC00FF8
7FC00FF8
7FC00FF8
3FC00FF0
3FE01FF0
07FFFF80
01FFFE00
00000000
00000000
00000000
00000000
00000000
ENDCHAR

STARTCHAR epsilon
ENCODING 229
SWIDTH 1131 0
DWIDTH 30 0
BBX 30 25 0 -5
BITMAP
00000000
00000000
00000000
00000000
00000000
00000000
00000000
00000000
00FFFFC0
03FFFFC0
07F80000
0FF00000
0FFFFE00
3FFFFE00
3FE00000
3FE00000
3FE00000
0FF00000
07FFFF80
01FFFF80
00000000
00000000
00000000
00000000
00000000
ENDCHAR

STARTCHAR phi
ENCODING 230
SWIDTH 1131 0
DWIDTH 30 0
BBX 30 25 0 -5
BITMAP
00000000
00000000
00000000
0000F000
0000F000
0000F000
0000E000
0003E000
003FFF00
03FFFFC0
07F3CFC0
0FC3C3F0
3FC3C3F0
3F07C3F0
3F0783F0
3F078FF0
3F078FC0
0FCF9FC0
0FFFFF00
03FFFC00
000F8000
000F0000
001F0000
001F0000
001F0000
ENDCHAR

STARTCHAR gamma
ENCODING 231
SWIDTH 1131 0
DWIDTH 30 0
BBX 30 25 0 -5
BITMAP
00000000
00000000
00000000
00000000
00000000
00000000
00000000
00000000
7FC003F8
7FE00FF8
3FE01FF0
0FF01FC0
07F03F80
03F87F00
01F87E00
00FFFE00
003FFC00
003FF000
001FE000
001FC000
003F8000
00FF0000
00FF0000
01FC0000
03F80000
ENDCHAR

STARTCHAR eta
ENCODING 232
SWIDTH 1131 0
DWIDTH 30 0
BBX 30 25 0 -5
BITMAP
00000000
00000000
00000000
00000000
00000000
00000000
00000000
00000000
7FF0FF80
7FFFFFF0
0FFF1FF8
0FF80FF8
0FF00FF8
3FE00FF8
3FE01FF0
3FE01FF0
3FC01FF0
7FC01FC0
7FC03FC0
7FC03FC0
00003FC0
00007FC0
00007F80
00007F80
00007F80
ENDCHAR

STARTCHAR iota
ENCODING 233
SWIDTH 1131 0
DWIDTH 30 0
BBX 30 25 0 -5
BITMAP
00000000
00000000
00000000
00000000
00000000
00000000
00000000
00000000
07FFC000
07FFC000
003F8000
003F8000
00FF8000
00FF0000
00FF0000
00FF0000
01FF0FC0
01FFFFC0
01FFFFC0
00FFFF00
00000000
00000000
00000000
00000000
00000000
ENDCHAR

STARTCHAR theta
ENCODING 234
SWIDTH 1131 0
DWIDTH 30 0
BBX 30 25 0 -5
BITMAP
00000000
00000000
00000000
001FFE00
00FFFF80
03FC0FF0
07F003F0
07E003F8
0FE003F8
3FC003F8
3FFFFFF8
7FFFFFF8
7FC00FF8
7F000FF0
7F000FF0
7F001FC0
3F001FC0
3FC07F80
0FFFFE00
03FFE000
00000000
00000000
00000000
00000000
00000000
ENDCHAR

STARTCHAR kappa
ENCODING 235
SWIDTH 1131 0
DWIDTH 30 0
BBX 30 25 0 -5
BITMAP
00000000
00000000
00000000
00000000
00000000
00000000
00000000
00000000
3FF80FF0
3FF81FF0
07F83F80
07F87F00
07FFFC00
0FFFF000
0FFFF000
0FFFFC00
0FE3FF00
3FE0FF80
3FE07FC0
3FE01FF0
00000000
00000000
00000000
00000000
00000000
ENDCHAR

STARTCHAR lambda
ENCODING 236
SWIDTH 1131 0
DWIDTH 30 0
BBX 30 25 0 -5
BITMAP
00000000
00000000
00000000
00FF8000
00FFC000
001FE000
000FE000
000FF000
0007F000
000FFC00
001FFE00
003FFE00
003FFF00
00FFFF00
01FF3F80
03FC3FC0
07F81FC0
0FF01FF0
3FE00FF0
7FC00FF8
00000000
00000000
00000000
00000000
00000000
ENDCHAR

STARTCHAR nu
ENCODING 238
SWIDTH 1131 0
DWIDTH 30 0
BBX 30 25 0 -5
BITMAP
00000000
00000000
00000000
00000000
00000000
00000000
00000000
00000000
3FFC0FF8
3FFC0FF8
01FC0FF8
01FC0FF8
01FC0FF8
01FC1FF0
01FC1FF0
01FC3FC0
01FFFF00
01FFFE00
01FFF000
01FFC000
00000000
00000000
00000000
00000000
00000000
ENDCHAR

STARTCHAR partialdiff
ENCODING 239
SWIDTH 1131 0
DWIDTH 30 0
BBX 30 25 0 -5
BITMAP
00000000
00000000
00000000
01FFE000
01FFFC00
01FFFF00
00007F80
00003F80
00003FC0
00FFFFC0
03FFFFC0
07F87FC0
0FF03FC0
0FF03FC0
0FF03FC0
0FF03FC0
0FF03F80
07F87F80
03FFFF00
00FFF000
00000000
00000000
00000000
00000000
00000000
ENDCHAR

STARTCHAR pi
ENCODING 240
SWIDTH 1131 0
DWIDTH 30 0
BBX 30 25 0 -5
BITMAP
00000000
00000000
00000000
00000000
00000000
00000000
00000000
00000000
7FFFFFF8
7FFFFFF8
0FE03F80
0FE03F80
0FE07F00
3FC07F00
3FC07E00
3FC07E00
3FC0FE00
7F00FE00
7F00FFC0
7F007FC0
00000000
00000000
00000000
00000000
00000000
ENDCHAR

STARTCHAR psi
ENCODING 241
SWIDTH 1131 0
DWIDTH 30 0
BBX 30 25 0 -5
BITMAP
00000000
00000000
00000000
0003F000
0003F000
0003F000
0003F000
0003F000
0FC7E1F8
0FC7E1F8
0FC7E1F8
0FC7E1F8
3F07C1F8
3F0FC1F8
3F0FC1F0
3F0FC3F0
3F0FC3C0
0FFFFFC0
07FFFF80
001F8000
001F8000
001F8000
003F0000
003F0000
003F0000
ENDCHAR

STARTCHAR rho
ENCODING 242
SWIDTH 1131 0
DWIDTH 30 0
BBX 30 25 0 -5
BITMAP
00000000
00000000
00000000
00000000
00000000
00000000
00000000
00000000
03FFFF00
0FFFFFC0
0FF01FF0
3FE00FF0
3FE00FF8
3FC00FF8
7FC00FF8
7FC00FF8
7FC00FF0
7FF01FF0
7FFFFFC0
7F1FFF00
7F000000
FF000000
FF000000
FF000000
FF000000
ENDCHAR

STARTCHAR sigma
ENCODING 243
SWIDTH 1131 0
DWIDTH 30 0
BBX 30 25 0 -5
BITMAP
00000000
00000000
00000000
00000000
00000000
00000000
00000000
00000000
003FFFF8
03FFFFF8
0FF83F80
3FE01FC0
3FE01FF0
7FC01FF0
7FC01FF0
7FC03FF0
7FC03FC0
3FE0FF80
0FFFFF00
03FFFC00
00000000
00000000
00000000
00000000
00000000
ENDCHAR

STARTCHAR tau
ENCODING 244
SWIDTH 1131 0
DWIDTH 30 0
BBX 30 25 0 -5
BITMAP
00000000
00000000
00000000
00000000
00000000
00000000
00000000
00000000
3FFFFFF0
3FFFFFF0
001FC000
001FC000
003F8000
003F8000
00FF0000
00FF0000
00FF01F0
00FF83F0
003FFFC0
000FFF00
00000000
00000000
00000000
00000000
00000000
ENDCHAR

STARTCHAR florin
ENCODING 246
SWIDTH 1131 0
DWIDTH 30 0
BBX 30 25 0 -5
BITMAP
00000000
00000000
00000000
00000000
00000000
00003FF8
0000FFF8
0003FE00
0003FC00
0007F000
01FFFFC0
01FFFFC0
01FFFFC0
000FE000
000FE000
001FC000
001FC000
001FC000
001F8000
003F8000
003F0000
00FF0000
7FFC0000
7FF00000
00000000
ENDCHAR

STARTCHAR omega
ENCODING 247
SWIDTH 1131 0
DWIDTH 30 0
BBX 30 25 0 -5
BITMAP
00000000
00000000
00000000
00000000
00000000
00000000
00000000
00000000
3FC003F8
3FC003F8
3FC003F8
3FC003F8
7F0FC3F8
7F0FC3F8
7F0FC3F8
7F0FC3F8
7F0FC3F0
3FCFCFF0
3FFFFFC0
07F87F00
00000000
00000000
00000000
00000000
00000000
ENDCHAR

STARTCHAR xi
ENCODING 248
SWIDTH 1131 0
DWIDTH 30 0
BBX 30 25 0 -5
BITMAP
00000000
00000000
00000000
03FFFFF0
03FFFFF0
001FF000
003FC000
00FF8000
00FF0000
00FF8000
003FFE00
00FFFE00
03FC0000
0FF00000
3FE00000
3FE00000
3FE00000
3FF00000
0FFFFF00
03FFFF80
0000FF80
00007F00
00007F00
0000FC00
0007C000
ENDCHAR

STARTCHAR upsilon
ENCODING 249
SWIDTH 1131 0
DWIDTH 30 0
BBX 30 25 0 -5
BITMAP
00000000
00000000
00000000
00000000
00000000
00000000
00000000
00000000
03FC1FF0
03FC1FF0
0FF81FF0
0FF01FF0
0FF03FF0
3FF03FC0
3FE03FC0
3FE07F80
3FE07F80
0FF0FE00
0FFFFE00
01FFE000
00000000
00000000
00000000
00000000
00000000
ENDCHAR

STARTCHAR zeta
ENCODING 250
SWIDTH 1131 0
DWIDTH 30 0
BBX 30 25 0 -5
BITMAP
00000000
00000000
00000000
03FFFFF0
03FFFFF0
00007F80
0000FE00
0007F000
001FC000
00FF0000
03FC0000
07F80000
0FF00000
3FF00000
3FE00000
3FE00000
3FE00000
0FF00000
0FFFFFC0
01FFFFF0
00003FF0
00001FC0
00001FC0
00003F00
0000FC00
ENDCHAR

STARTCHAR arrowleft
ENCODING 251
SWIDTH 1131 0
DWIDTH 30 0
BBX 30 25 0 -5
BITMAP
00000000
00000000
00000000
00000000
00000000
00000000
003F0000
003F0000
01FF0000
0FF00000
0FF00000
7FFFFFFC
7FFFFFFC
7FFFFFFC
0FF00000
0FF00000
01FF0000
003F0000
003F0000
00000000
00000000
00000000
00000000
00000000
00000000
ENDCHAR

STARTCHAR arrowup
ENCODING 252
SWIDTH 1131 0
DWIDTH 30 0
BBX 30 25 0 -5
BITMAP
00000000
00000000
00000000
00008000
0003C000
000FF000
000FF000
003FFE00
00FFFF00
01F7EF80
01E7E380
01E7E380
0007E000
0007E000
0007E000
0007E000
0007E000
0007E000
0007E000
0007E000
0007E000
0007E000
0007E000
0007E000
00000000
ENDCHAR

STARTCHAR arrowright
ENCODING 253
SWIDTH 1131 0
DWIDTH 30 0
BBX 30 25 0 -5
BITMAP
00000000
00000000
00000000
00000000
00000000
00000000
0003F000
0003F000
0003FE00
00003FC0
00003FC0
FFFFFFF8
FFFFFFF8
FFFFFFF8
00003FC0
00003FC0
0003FE00
0003F000
0003F000
00000000
00000000
00000000
00000000
00000000
00000000
ENDCHAR

STARTCHAR arrowdown
ENCODING 254
SWIDTH 1131 0
DWIDTH 30 0
BBX 30 25 0 -5
BITMAP
00000000
00000000
00000000
000FC000
000FC000
000FC000
000FC000
000FC000
000FC000
000FC000
000FC000
000FC000
000FC000
000FC000
000FC000
03CFCF00
03CFCF00
03EFDF00
01FFFE00
00FFFC00
001FE000
001FE000
00078000
00030000
00000000
ENDCHAR
ENDFONT
